<?xml version="1.0" standalone="no"?>
<!DOCTYPE svg PUBLIC "-//W3C//DTD SVG 20010904//EN"
 "http://www.w3.org/TR/2001/REC-SVG-20010904/DTD/svg10.dtd">
<svg version="1.0" xmlns="http://www.w3.org/2000/svg"
 width="1274.000000pt" height="272.000000pt" viewBox="0 0 1274.000000 272.000000"
 preserveAspectRatio="xMidYMid meet">

<g transform="translate(0.000000,272.000000) scale(0.100000,-0.100000)"
fill="#000000" stroke="none">
<path d="M10345 2513 c-67 -19 -98 -83 -71 -146 8 -20 19 -37 23 -38 4 0 60
-1 123 -3 102 -2 127 -6 226 -39 171 -57 276 -47 305 31 33 86 -106 233 -156
165 -17 -23 -74 -22 -205 5 -113 24 -214 34 -245 25z"/>
<path d="M4440 2279 c-139 -132 -324 -309 -402 -385 -85 -83 -96 -111 -58
-154 11 -13 20 -19 20 -14 0 5 4 3 8 -4 5 -7 23 -14 40 -15 18 -1 32 -5 32 -9
0 -5 7 -8 15 -8 29 0 95 -25 95 -36 0 -22 -59 -234 -91 -324 -38 -107 -178
-391 -196 -397 -7 -3 -14 16 -18 54 -7 63 -33 219 -40 243 -2 8 -6 31 -9 50
-5 34 -32 164 -74 355 -11 50 -26 109 -35 132 -8 24 -11 40 -7 38 5 -3 -1 19
-11 47 -11 29 -22 61 -24 72 -5 23 -41 95 -60 120 -13 17 -17 17 -32 5 -17
-13 -17 -13 -4 4 13 16 13 20 0 28 -25 17 -58 21 -102 15 -50 -8 -141 -62
-131 -78 4 -6 3 -8 -3 -5 -12 8 -36 -17 -26 -26 3 -4 1 -7 -6 -7 -7 0 -10 -4
-7 -9 3 -5 -1 -14 -9 -21 -26 -22 -15 -99 24 -170 8 -14 14 -27 14 -30 -1 -7
10 -34 44 -110 44 -97 100 -275 95 -299 -2 -8 1 -10 9 -5 8 4 10 3 5 -5 -4 -6
-3 -26 3 -44 10 -33 36 -154 51 -242 28 -160 39 -226 45 -275 8 -68 34 -127
69 -160 23 -21 36 -24 99 -24 85 1 135 15 197 57 65 44 193 175 184 189 -4 6
-3 8 3 5 14 -9 116 140 107 155 -4 6 -3 8 3 5 6 -4 35 39 66 96 56 102 130
267 120 267 -3 0 0 6 6 14 6 7 25 53 42 102 17 49 32 91 35 95 2 4 21 1 43 -7
38 -13 68 -21 121 -31 16 -3 35 3 53 17 30 24 36 69 18 139 -10 36 -39 165
-91 394 -5 23 -14 67 -21 97 -6 30 -14 62 -17 70 -3 8 -7 26 -9 40 -7 39 -32
60 -72 60 -31 0 -47 -10 -111 -71z"/>
<path d="M11802 2258 c-288 -29 -547 -206 -675 -463 -166 -331 -112 -706 140
-981 113 -123 306 -226 474 -253 292 -48 569 44 770 256 90 95 150 191 193
311 29 82 31 97 34 254 3 144 1 176 -17 241 -81 296 -300 520 -592 607 -83 25
-231 37 -327 28z"/>
<path d="M7451 2141 c-16 -16 -21 -34 -21 -71 0 -27 -3 -50 -8 -50 -15 0 -114
-88 -163 -146 -104 -122 -249 -370 -339 -581 l-22 -51 -71 24 c-89 30 -101 30
-115 -2 -21 -44 6 -114 70 -180 l40 -41 -22 -69 c-14 -42 -24 -106 -27 -164
-5 -116 8 -144 88 -184 62 -30 119 -33 169 -8 45 22 54 43 78 186 11 65 24
122 29 126 4 5 71 4 148 -2 77 -5 197 -8 266 -6 l127 4 21 -60 c52 -144 124
-235 202 -256 93 -25 138 20 119 121 -6 29 -26 100 -44 158 -88 274 -195 794
-210 1023 -7 102 -27 160 -65 187 -35 25 -104 48 -172 56 -50 6 -60 4 -78 -14z
m68 -606 c30 -154 66 -320 78 -359 5 -18 -2 -19 -186 -14 -105 3 -194 7 -196
10 -12 11 111 284 171 380 52 83 97 149 99 146 2 -2 17 -75 34 -163z"/>
<path d="M10401 2141 c-15 -15 -21 -34 -21 -69 0 -42 -3 -50 -29 -65 -71 -42
-191 -181 -281 -326 -50 -81 -159 -292 -200 -388 l-22 -51 -71 24 c-81 28
-112 25 -121 -9 -11 -47 18 -113 76 -173 l40 -41 -22 -69 c-31 -97 -37 -237
-13 -284 23 -44 108 -90 167 -90 51 0 107 27 123 60 6 14 21 79 32 144 11 66
24 123 28 127 4 4 69 3 143 -3 74 -5 194 -8 266 -6 l131 4 13 -35 c31 -91 91
-200 129 -234 75 -67 171 -73 197 -12 17 41 8 93 -40 244 -85 263 -189 760
-207 989 -10 135 -28 193 -68 221 -35 25 -104 48 -172 56 -50 6 -60 4 -78 -14z
m88 -702 c28 -135 53 -253 57 -264 7 -17 -2 -18 -185 -13 -105 3 -194 7 -196
10 -8 7 69 190 123 293 55 104 145 242 149 229 1 -5 25 -120 52 -255z"/>
<path d="M2358 2120 c-363 -66 -618 -386 -618 -775 0 -117 19 -208 71 -342 91
-233 213 -352 419 -409 84 -24 368 -27 445 -5 171 48 331 171 419 321 90 153
120 283 113 489 -5 173 -21 239 -85 370 -80 166 -218 279 -402 331 -84 23
-284 35 -362 20z m224 -210 c135 -51 221 -186 253 -399 46 -302 -30 -604 -175
-702 -59 -40 -112 -52 -190 -45 -239 25 -360 225 -360 596 0 324 101 535 272
570 55 11 140 2 200 -20z"/>
<path d="M8795 2120 c-174 -26 -364 -124 -472 -244 -229 -253 -279 -585 -133
-879 101 -202 268 -337 494 -400 l77 -22 4 -60 c5 -81 23 -118 72 -154 46 -33
63 -68 42 -83 -19 -13 -87 -3 -142 21 -61 26 -107 14 -107 -29 0 -39 32 -75
98 -107 50 -25 68 -28 152 -28 108 0 149 15 175 65 31 61 8 126 -77 216 -41
44 -51 62 -55 99 l-6 45 119 0 c191 0 347 48 445 137 72 65 93 143 44 165 -21
10 -37 5 -116 -32 -243 -112 -501 -102 -692 27 -160 108 -227 280 -213 543 17
337 166 543 402 558 125 8 184 -29 184 -116 0 -42 -4 -49 -60 -103 -33 -31
-60 -62 -60 -69 0 -54 106 -136 215 -165 l65 -18 47 25 c123 63 138 255 32
419 -100 156 -294 225 -534 189z"/>
<path d="M5125 2104 c-167 -21 -246 -59 -260 -125 -13 -58 31 -159 81 -187 15
-8 15 -19 -2 -138 -28 -194 -26 -669 3 -804 27 -126 61 -208 96 -234 28 -20
38 -21 310 -18 162 2 318 -1 366 -7 71 -9 88 -9 108 4 40 27 57 64 58 127 0
69 -16 87 -94 106 -76 19 -328 34 -452 27 l-116 -7 -6 39 c-4 21 -7 100 -7
176 l0 137 51 0 c28 0 128 -5 221 -11 195 -13 205 -10 244 57 48 82 21 185
-53 201 -21 4 -133 7 -249 5 l-212 -3 19 98 c10 54 26 133 35 176 l18 77 121
0 c66 0 180 -5 253 -11 153 -12 167 -7 202 67 16 35 20 61 18 107 -3 56 -6 63
-34 82 -58 39 -253 62 -529 62 -88 0 -173 -1 -190 -3z"/>
<path d="M64 2064 c-67 -33 -66 -13 -62 -684 l3 -605 24 -59 c32 -79 83 -132
142 -147 53 -14 91 -7 120 22 20 20 21 28 15 183 -3 88 -8 307 -11 486 -4 264
-3 322 7 307 7 -10 42 -64 77 -120 138 -219 316 -434 378 -458 63 -24 138 20
154 90 13 58 99 210 222 394 54 81 100 147 100 147 1 0 2 -111 2 -247 1 -454
62 -730 173 -787 47 -23 98 -28 137 -12 54 23 60 50 41 181 -50 349 -45 738
14 1024 30 142 28 167 -19 211 -71 68 -176 99 -234 69 -25 -13 -66 -59 -67
-74 0 -6 -54 -64 -121 -130 -155 -154 -248 -264 -345 -412 -43 -65 -81 -122
-85 -126 -8 -10 -201 239 -281 363 -68 104 -108 182 -108 210 0 71 -138 190
-220 190 -14 0 -39 -7 -56 -16z"/>
<path d="M11140 748 c-24 -40 -43 -105 -35 -118 9 -15 25 -2 25 21 0 20 8 23
34 13 10 -4 16 -18 16 -40 0 -45 13 -43 29 4 8 20 23 50 33 65 11 15 17 35 14
44 -6 14 -8 14 -26 -2 -11 -10 -22 -26 -25 -36 -7 -21 -22 -24 -44 -10 -11 7
-10 14 8 40 21 29 21 51 0 51 -5 0 -18 -15 -29 -32z"/>
<path d="M12594 765 c-4 -8 -12 -15 -20 -15 -18 0 -18 -24 0 -39 11 -10 11
-61 -1 -61 -2 0 -15 12 -28 28 l-25 27 -20 -25 c-14 -17 -19 -35 -16 -55 3
-16 1 -39 -4 -50 -7 -19 -8 -18 -20 8 -14 30 -37 36 -46 12 -4 -8 -15 -15 -25
-15 -10 0 -19 -4 -19 -9 0 -5 -9 -11 -21 -14 -19 -5 -19 -7 -5 -35 13 -24 13
-32 2 -47 -12 -17 -14 -16 -24 13 -6 18 -16 32 -22 32 -17 0 -23 -27 -10 -50
6 -12 8 -25 4 -28 -4 -4 -9 -2 -11 4 -2 6 -10 20 -18 30 -11 15 -16 16 -26 7
-9 -9 -8 -18 5 -38 23 -35 46 -42 62 -20 8 10 14 16 14 12 0 -4 9 -3 20 3 11
6 20 19 20 29 0 14 6 17 26 13 l26 -5 -16 31 c-23 44 -20 52 7 18 29 -36 55
-28 31 10 -22 33 -10 43 15 13 16 -20 21 -21 35 -10 9 7 16 22 16 32 0 13 7
19 23 19 31 0 77 53 70 81 -5 19 -4 20 15 10 26 -14 36 0 17 25 -20 27 -18 40
3 21 23 -21 48 -22 56 -1 9 24 7 44 -4 44 -5 0 -10 -7 -10 -15 0 -21 -13 -19
-28 5 -14 24 -40 26 -48 5z m-57 -142 c-11 -10 -27 8 -27 30 l0 21 16 -22 c9
-13 14 -26 11 -29z"/>
<path d="M11232 618 c-16 -16 -16 -78 1 -79 21 -2 31 -5 51 -14 12 -5 26 -4
39 4 18 12 19 11 13 -22 -4 -24 -2 -38 6 -43 6 -4 13 -3 15 3 2 6 10 19 18 29
14 18 14 17 9 -12 -7 -39 12 -55 25 -21 6 14 15 28 22 33 9 5 10 2 5 -12 -8
-21 -9 -24 -7 -41 2 -19 46 -16 62 3 12 15 11 16 -8 10 -21 -7 -22 -4 -20 31
1 28 -2 38 -13 39 -17 1 -47 11 -71 24 -9 5 -20 6 -23 3 -3 -4 -18 -8 -32 -9
-21 -2 -24 0 -18 14 11 27 10 55 -2 59 -6 2 -17 -10 -24 -27 -14 -35 -35 -41
-25 -7 4 12 8 26 9 31 2 14 -19 17 -32 4z"/>
<path d="M12170 511 c0 -11 5 -32 10 -47 12 -30 12 -29 -17 -38 -19 -6 -23 -2
-29 29 -7 39 -20 53 -36 37 -14 -14 16 -101 44 -132 24 -26 36 -13 18 19 -9
18 -7 21 15 27 19 5 30 1 44 -17 23 -29 38 -20 20 13 -7 12 -18 46 -24 73 -8
33 -17 51 -28 53 -11 2 -17 -3 -17 -17z"/>
<path d="M11513 464 c-19 -30 -8 -59 23 -59 10 0 22 -4 26 -10 5 -6 18 -6 38
2 27 10 30 9 30 -8 0 -10 5 -19 10 -19 6 0 10 4 10 8 0 5 6 17 14 28 13 18 14
17 13 -16 -2 -29 2 -36 19 -38 11 -2 27 5 35 14 12 15 12 16 -10 9 -21 -6 -23
-5 -16 11 17 43 17 54 -1 60 -11 3 -27 10 -37 15 -14 7 -20 4 -28 -15 -6 -13
-20 -27 -31 -29 -18 -5 -19 -2 -13 34 l7 39 -36 0 c-27 0 -40 -6 -53 -26z m57
-2 c0 -5 -7 -17 -15 -28 -14 -19 -14 -19 -15 2 0 11 3 24 7 27 9 10 23 9 23
-1z"/>
<path d="M11838 448 c-13 -26 -11 -87 4 -105 14 -17 43 -16 58 2 11 13 14 13
27 0 19 -19 37 -19 53 0 7 8 19 15 26 15 8 0 14 8 14 17 0 9 -3 13 -7 10 -3
-4 -11 3 -17 16 -7 13 -23 23 -39 25 -23 3 -30 -2 -39 -26 -6 -16 -20 -34 -30
-41 -16 -10 -18 -8 -18 18 0 16 4 31 9 33 14 5 1 58 -15 58 -7 0 -19 -10 -26
-22z m130 -71 c2 -10 -3 -17 -12 -17 -10 0 -16 9 -16 21 0 24 23 21 28 -4z"/>
</g>
</svg>
